<!-- Generated by IcoMoon.io -->
<svg version="1.1" xmlns="http://www.w3.org/2000/svg" viewBox="0 0 1024 1024">
<title></title>
<g id="icomoon-ignore">
</g>
<path d="M128 512h-60c0.022-245.198 198.799-443.961 444-443.961 140.612 0 265.958 65.364 347.31 167.365l0.69 0.896v-66.3h60v210h-210v-60h134.54c-67.689-115.526-191.184-191.903-332.526-192h-0.014c-211.74 0-384 172.26-384 384zM896 512c0 211.74-172.26 384-384 384-141.356-0.097-264.851-76.474-331.559-190.19l-0.981-1.81h134.54v-60h-210v210h60v-66.3c82.042 102.897 207.388 168.261 348 168.261 245.201 0 443.978-198.763 444-443.959v-0.002z"></path>
</svg>
